<svg width="40" height="40" viewBox="0 0 40 40" fill="none" xmlns="http://www.w3.org/2000/svg">
<path d="M6.66675 32.5V7.50004C6.66675 6.39497 7.10573 5.33516 7.88714 4.55376C8.66854 3.77236 9.72835 3.33337 10.8334 3.33337H31.6667C32.1088 3.33337 32.5327 3.50897 32.8453 3.82153C33.1578 4.13409 33.3334 4.55801 33.3334 5.00004V35C33.3334 35.4421 33.1578 35.866 32.8453 36.1786C32.5327 36.4911 32.1088 36.6667 31.6667 36.6667H10.8334C9.72835 36.6667 8.66854 36.2277 7.88714 35.4463C7.10573 34.6649 6.66675 33.6051 6.66675 32.5ZM6.66675 32.5C6.66675 31.395 7.10573 30.3352 7.88714 29.5538C8.66854 28.7724 9.72835 28.3334 10.8334 28.3334H33.3334" stroke="white" stroke-width="3.33333" stroke-linecap="round" stroke-linejoin="round"/>
<path d="M13.3333 21.6667L19.9999 10L26.6666 21.6667" stroke="white" stroke-width="3.33333" stroke-linecap="round" stroke-linejoin="round"/>
<path d="M15.1667 18.3333H24.6667" stroke="white" stroke-width="3.33333" stroke-linecap="round" stroke-linejoin="round"/>
</svg>
